<svg id="africa-map" class="hero-map" data-name="africa map" xmlns="http://www.w3.org/2000/svg" viewBox="0 0 533.6 569.05">
  <defs>
    <style>
      .cls-1 {
        fill: none;
        stroke: #fff;
        stroke-miterlimit: 10;
        stroke-width: 4px;
      }

      .cls-2 {
        fill: #fff;
      }
    </style>
  </defs>
  <title>Africa map</title>
  <path class="cls-1" d="M201.51,111l26.58,1.39L254.93,108l10.93,4.24,2.16,8.55-7.25,12.26,8.68,7.57,22.91,4.07,5,8.76,12.72-.68,14,11.72,4.67-15.61,6.8-9,15.53,2.79,13,5.84,21.83,1.68,9.43,8.67,16.76-8.6,10.38,6.2,5.5,6.15v13.2L418.8,169l-.42,5.15,9.46,17.79,20.33,18.19-4.91,6.82,18.55,12-2.24,17.75L474,264.53,480.61,282h14.66l21.06,18.92-6,10.14,12,8.07,39.61-10,8.29-11.05s6.77,56.84-40.65,89.38l-36,38.13L478,449.94l6.6,31.54,7.68,6.89-3.68,17.14,2.14,16.53-11.67,15.23-13,2.44-22.28,26.64L442,579.45l-9,13.82v7.92l-19.31,5.16,1,15.75L404.5,640l-20.35,27.2-18.76,5.93L329.1,675,309,662.07l1.07-12.59L292.3,616.6l-5.85-35.39-25.58-39.89,12-41.32,9.39-8-9.2-14.16-5.29-34.49-28-31.22,7-38.86-6.9-7.25-21.68-.6L204,346.22l-20.16,6.21L160,363.83l-24.48-2.44-28.9,3.06L88.21,349.2l-26-9.79,1.39-16.75L39,303.22v-15.6l4.66-6.71-4.57-6,15.53-24.56,1.08-16.63-8.19-9.77,22.33-29,4.61-11.75,10.59-3L89.33,175h8.54l18-14L120,144l9.47-11.54,14.5,1.75,7.77-19.08,10.89,9.58,16-3.13,9-7,7.38,2.63Z" transform="translate(-37.88 -106.97)"/>
  <circle class="cls-2" cx="374.39" cy="313.11" r="9.07"/>
</svg>
