<svg id="africa-map" class="hero-map" data-name="africa map" xmlns="http://www.w3.org/2000/svg" viewBox="0 0 536.48 571.09">
  <defs>
    <style>
      .cls-3,
      .cls-1 {
        fill: none;
        stroke: #fff;
        stroke-miterlimit: 10;
        stroke-width: 4px;
      }

      .cls-2 {
        fill: #fff;
      }
    </style>
  </defs>
  <title>Africa map</title>
  <path class="cls-1" d="M167.51,8l26.58,1.39L220.93,5l10.93,4.24L234,17.79,226.77,30l8.68,7.57,22.91,4.07,5,8.76,12.72-.68,14,11.72,4.67-15.61,6.8-9,15.53,2.79,13,5.84,21.83,1.68,9.43,8.67,16.76-8.6,9.88,6.2,5,6.15v13.2L384.3,66l-.17,5.15,9.59,17.79,20.39,18.19-4.88,6.82,18.56,12-2.24,17.75L440,162l6.63,18h14.66l21.06,18.42-6,9.89,12,7.95,39.61-10.07,8.29-11.08s6.77,56.83-40.65,89.36l-36,38.13L444,346.94l6.6,31.54,7.68,6.89-3.68,17.14L456.74,419l-11.67,15.23-13,2.44-22.28,26.64-2.29,13.09L398,490.26v7.92l-18.81,5.16,1.22,15.75-10,17.87-20.29,27.2-18.73,5.93L295.08,572,275,559.07l1.07-12.59-17.79-32.89-5.85-35.39-25.58-39.89,12-41.32,9.39-8-9.2-14.16-5.29-34.49-28-31.22,7-38.86-6.9-7.25-21.68-.6L170,243.21l-20.16,6.21L126,260.83l-24.48-2.44-28.9,3.06L54.21,246.2l-26-9.79.89-16.75L4,200.21v-15.6l5.16-6.71-4.32-6L20.5,147.33l1.14-16.63-8.16-9.77,22.34-29,4.62-11.75L51,77.64,55.33,73h8.54l18-14.55L86,41.21l9.47-11.67L110,31.23l7.77-19.11,10.89,9.57,16-3.14,9-7,7.38,2.63Z" transform="translate(-2 -2.93)"/>
  <circle class="cls-2" cx="376.27" cy="314.14" r="15"/>
  <polygon class="cls-3" points="517.75 397.44 523.88 426.5 520.94 429.53 519.22 425.67 517.98 431.8 518.74 435.31 514.87 439.18 513 451.19 490.12 499.81 485.38 503.07 483 503.07 477.5 506.07 473 506.07 464 496.06 464 492.06 466 489.56 466 486.44 463 481.69 463 474.06 474.63 461.81 475.63 452.69 474 443.31 476.69 438.06 479.47 432.19 491.98 427.56 504.24 418.81 506.75 413.44 513.87 408.44 514.75 403.31 513.88 401.81 517.75 397.44"/>
</svg>
